<svg xmlns="http://www.w3.org/2000/svg" viewBox="0 0 1320.15 2015.4"><defs><style>.cls-1{fill:#000e54;}.cls-2{fill:#e2f8fb;}.cls-3{fill:#dbebf7;}.cls-4{fill:#90cae4;}</style></defs><g id="Layer_2" data-name="Layer 2"><g id="Layer_1-2" data-name="Layer 1"><g id="Coloured_Logo" data-name="Coloured Logo"><path class="cls-1" d="M1319.84,1383.82c-4,84.11-46.47,149.47-123,189.53-30.47,126.52-107.09,227.68-228.07,300.87-63,38.12-129.29,69.2-193.47,99.28l-.45.21C753,1984,731.62,1994,710.86,2004A120.23,120.23,0,0,1,659,2015.4a117.72,117.72,0,0,1-42.1-7.55C521,1971,409.06,1922.77,307.1,1844.76c-98-74.92-158.58-164-184.92-271.69C47.54,1532.94,6.75,1472.37.75,1392.73c-5.19-69.69,16.53-130.68,62.87-176.36a238.36,238.36,0,0,1,23.29-20.2c-2.57-17.05-4.54-32.92-6.1-48.48a695,695,0,0,1,.52-138.52,56.68,56.68,0,0,1,.65-5.92l12.41-72c.24-1.46.56-2.88.94-4.3l5-19c.14-.55.28-1.14.45-1.69,20.31-68.48,55.69-126.35,105.18-172,48.66-44.88,111.24-78,186-98.56,46.78-12.79,93.6-20.65,138.93-28.24,28.17-4.68,59.88-10,89.72-16.5,109-23.87,192.47-58.08,262.78-107.63,31.81-22.43,184.85-143.27,73.54-322.67L906.42,79.39a52,52,0,0,1,73-70.66l79.6,53c2.43,1.6,5,3.23,7.59,4.86l2.67,1.66a308.52,308.52,0,0,1,27.79,19.16c87.36,69,147.8,153.49,179.48,251.14,31.29,96.38,34.62,206.2,10,326.38-17.4,84.7-28.73,150.61-16.08,227.82,18.64,113.91-2,223.59-26.48,312.3C1296.11,1248,1323.41,1311.19,1319.84,1383.82Z"/><path class="cls-2" d="M1166.53,1242.09l-1.61-.83-10.58,4.38c-6.19,19.52-34.83,20.19-34,2.34,0,0,.54-11,.82-16.49a7.57,7.57,0,0,0-.38-2.79c-4.84-14.29-9.64-28.37-14.48-42.44-7.31-21.56-13.79-43.46-23.15-64.11-26.68-58.78-65.91-101.78-133.94-120.22a1114.37,1114.37,0,0,0-149.84-29.87,1031.19,1031.19,0,0,0-114.88-8.21c-106.7-1.63-213,13.48-319.17,45.95-63.07,19.27-105.73,59.88-127.36,122-1.24,3.57-2.46,7.1-3.74,10.64-15.2,43.51-30.9,86.89-46.67,130.24a7.49,7.49,0,0,1-14.37-1l-.05-.26q-3-14.77-5.94-29.62a7.46,7.46,0,0,0-11.24-5l-1,.58c-16.19,9.11-30.15,19.34-41.8,30.84-30.74,30.32-45.08,69.38-41.37,119.11,4.64,61.72,38.91,100.39,92.63,126.42,10.32,5,21.55,17.5,23.8,28.35,21.63,103.27,79.33,182,161.53,244.9,88.58,67.75,188.76,113.42,291.93,153,10.43,4.06,25.89,3.37,36-1.49,84.63-40.92,171.75-78,251.9-126.52,102.68-62.14,174.91-151.27,198.89-273.7,2-10.16,15.66-20.86,26.44-26.06,55.76-26.89,87.78-70.11,90.76-131.93C1248.66,1318.29,1221.49,1269.84,1166.53,1242.09Zm-993.4,199.24a7.47,7.47,0,0,1-11.22,6.5c-34.39-20.93-44.67-67.28-32.28-105,5.75-17.53,16.38-33.21,31.78-43.61a7.51,7.51,0,0,1,11.72,6.21Zm968.48-.79V1304.46a7.49,7.49,0,0,1,11.1-6.58c25.79,14.64,35.44,39.23,39.6,66.22,5,32.58-10.2,62.93-39,82.67A7.5,7.5,0,0,1,1141.61,1440.54Z"/><path class="cls-1" d="M1213.65,650.29c-17.46,85.11-31.46,163.5-16.6,254.22,18.37,112.15-5.19,220.93-39.85,332.1-.07.21-.14.45-.24.69-11.61,37.26-60.54,38.88-71,5.37-2.12-6.86-4.27-13.65-6.38-20.41-4.47-14.31-8.91-28.42-13.34-42.52-6.59-20.9-12.41-42.17-20.79-62.24-23.92-57-59.09-98.8-120.05-116.68a932.2,932.2,0,0,0-134.32-29,855.34,855.34,0,0,0-103-8Q544.64,961.4,402,1008.44c-56.53,18.72-94.78,58.15-114.16,118.38-1.1,3.47-2.21,6.9-3.36,10.33-16.25,50.39-33.09,100.53-50,150.68a25.4,25.4,0,0,1-4.68,8.11c-20.62,9.56-51.53.27-56.66-24.61q-4.41-21.25-8.45-42.62c-5.44-29.25-10.09-58.64-13-88.16a620.48,620.48,0,0,1,.8-126.84v-.07l12.37-71.84,0,0C197.65,812.26,288.48,739.14,409.6,705.91c73.64-20.2,150.33-27.48,225-43.87C737.05,639.58,835.4,605,923.7,542.83c117.2-82.62,204.5-241.55,93.43-420.54,11.09,7.38,22.77,13.93,33.23,22.18C1213.9,273.59,1254.89,449.4,1213.65,650.29Z"/><path class="cls-1" d="M814,1569.44c2.51,95.84-58.75,154.75-154.31,157.46-86.27,2.45-170.35-72.49-154.75-157.46Z"/><path class="cls-3" d="M776,1599.75a88.18,88.18,0,0,1-1.26,18.39c-7.81,43.81-50.11,70.18-112,71.55-63.33,1.39-125-41.41-113.59-89.94Z"/><path class="cls-1" d="M340.4,1348.21l-22.08-2.16v-39.71l18.63-2.45c8.95-34.68,34.83-44,67.57-43.71,57.9.43,115.8.18,173.71.13,20.59,0,39.27,4.65,55.37,18.67,4,3.44,11,4.37,16.76,4.53,20.13.55,39.6,2.07,57.51-13.27,8.89-7.62,24.91-9.3,37.77-9.5,61.48-.91,123-.68,184.47-.27,27.11.18,48.81,9.36,58.47,37.91,1.47,4.35,9.76,6.39,17,10.75v37.42c-19.22-3.8-21.11,7.81-22.07,22.76-1.51,23.47-5.06,46.8-7.79,70.19C971.31,1477,947.64,1498,910,1498c-50.22,0-100.45-.65-150.65.33-19.13.37-33.07-7.09-39-23.65-11.83-33-21.67-66.8-31.14-100.61-4.09-14.6-5.21-30-7.83-46H646.31c-4.09,22.47-6.89,45.75-12.79,68.2a708.5,708.5,0,0,1-24.78,75.45c-7.31,18.9-21.85,27.32-43.48,26.75-48.65-1.28-97.35-.38-146-.48-41.82-.09-64.75-21.85-68.66-64.11-2.35-25.48-5.56-50.87-8.45-76.29C341.79,1354.6,341,1351.66,340.4,1348.21Zm152.12-44c-23.56,0-47.13-.47-70.68.13-25.06.64-38.87,15.34-36.73,38.83q3.47,38.21,8.3,76.28c3.35,26.28,15.41,36.67,41.79,36.77,35.85.14,71.72-.65,107.54.34,17,.46,28.52-5.87,32.94-21.36,8-27.88,15.82-56,20.74-84.47,5.68-32.92-7.33-46.33-40.9-46.53C534.52,1304.13,513.52,1304.23,492.52,1304.26Zm343.45,0v0c-23.56,0-47.13-.5-70.66.14-21.74.6-36.63,12.27-35.84,29.93,1.63,36.39,8.14,72,24.1,105.28,5.68,11.84,14.61,17.06,28.15,16.85,36.86-.58,73.73-.1,110.6-.23,25.5-.08,39.19-11.77,42.1-37q4.3-37.33,6.94-74.85c1.9-26.69-10.52-39.71-37.81-40.15C881,1304,858.5,1304.25,836,1304.25Z"/><path class="cls-4" d="M492.52,1304.25c21,0,42-.12,63,0,33.57.2,46.58,13.61,40.9,46.53-4.92,28.51-12.79,56.59-20.74,84.47-4.42,15.49-16,21.82-32.94,21.36-35.82-1-71.69-.2-107.54-.34-26.38-.1-38.44-10.49-41.79-36.77q-4.83-38.05-8.3-76.28c-2.14-23.49,11.67-38.19,36.73-38.83C445.39,1303.79,469,1304.26,492.52,1304.25Z"/><path class="cls-4" d="M836,1304.25c22.53,0,45.06-.29,67.58.07,27.29.44,39.71,13.46,37.81,40.15q-2.65,37.48-6.94,74.85c-2.91,25.18-16.6,36.87-42.1,37-36.87.13-73.74-.35-110.6.23-13.54.21-22.47-5-28.15-16.85-16-33.28-22.47-68.89-24.1-105.28-.79-17.66,14.1-29.33,35.84-29.93,23.53-.64,47.1-.14,70.66-.14Zm45.3,64.78,19.06-1c7.58-39.64-16.33-44-62.45-38.35v17.38C854.85,1350.6,877.47,1340.21,881.27,1369Z"/><path class="cls-3" d="M881.27,1369c-3.8-28.82-26.42-18.43-43.39-21.92v-17.38c46.12-5.69,70-1.29,62.45,38.35Z"/></g></g></g></svg>