<svg xmlns="http://www.w3.org/2000/svg" viewBox="0 0 2090.9 1352.06"><defs><style>.cls-1{fill:#000e54;}.cls-2{fill:#e2f8fb;}.cls-3{fill:#dbebf7;}.cls-4{fill:#90cae4;}</style></defs><g id="Layer_2" data-name="Layer 2"><g id="Layer_1-2" data-name="Layer 1"><g id="Full_Coloured_Logo_in_black_-_Vertical_Stack" data-name="Full Coloured Logo in black - Vertical Stack"><path class="cls-1" d="M767.53,1223c1.63,78.54-38.34,126.81-100.69,129-56.3,2-111.16-59.4-101-129Z"/><path class="cls-1" d="M105.23,1223h23.84v129.08H103.26l-79.6-94.66v94.66H0V1223H25.81l79.42,94.66Z"/><path class="cls-1" d="M322,1246.65H227.12v29h76.37v23.66H227.12v29.05H322v23.66H203.28V1223H322Z"/><path class="cls-1" d="M522.91,1282.86a25.14,25.14,0,0,1-25.1,24.92h-7L522.91,1346v6.1H497.09l-37.29-44.28H417.5v44.28H393.83v-128.9h104a25.14,25.14,0,0,1,25.1,24.92Zm-25.1,1.26a1.22,1.22,0,0,0,1.25-1.26v-34.78a1.22,1.22,0,0,0-1.25-1.25H418.75a1.22,1.22,0,0,0-1.25,1.25v34.78a1.22,1.22,0,0,0,1.25,1.26Z"/><path class="cls-1" d="M935,1223l-59.7,80.86v48.22H851.67v-48.22c-18.82-25.64-41.06-55.22-59.7-80.86h28.15l43.38,54.86L906.7,1223Z"/><path class="cls-1" d="M1191.56,1223l-47,129.08h-18.65l-33.52-91.61c-10.94,30.12-22.77,61.67-33.52,91.61h-18.47l-47-129.08h25.1l31.19,85.16L1081,1223h23.12l31.19,85.16,31.2-85.16Z"/><path class="cls-1" d="M1262.53,1223h23.66v129.08h-23.66Z"/><path class="cls-1" d="M1478.19,1223v23.67h-52.53v105.41h-23.84V1246.65h-52.71V1223Z"/><path class="cls-1" d="M1677.52,1223v129.08h-23.66v-52.71h-84.62v52.71h-23.66V1223h23.66v52.71h84.62V1223Z"/><path class="cls-1" d="M1871.3,1223h26v129.08h-23.85V1257.4l-48.94,58.27-49.12-58.27v94.66h-23.66V1223h25.82l47,55.94Z"/><path class="cls-1" d="M2090.9,1246.65h-94.84v29h76.37v23.66h-76.37v29.05h94.84v23.66H1972.22V1223H2090.9Z"/><path class="cls-1" d="M1329.23,724.24c-2.1,44-24.32,78.22-64.36,99.19-15.95,66.22-56,119.16-119.36,157.46-33,20-67.67,36.22-101.26,52l-.24.11c-11.46,5.37-22.63,10.61-33.5,15.87a62.87,62.87,0,0,1-27.15,6,61.63,61.63,0,0,1-22-4c-50.19-19.3-108.77-44.53-162.13-85.35-51.27-39.22-83-85.81-96.78-142.2-39.06-21-60.41-52.7-63.55-94.38-2.72-36.47,8.65-68.39,32.9-92.3A124.18,124.18,0,0,1,684,626c-1.34-8.93-2.37-17.23-3.19-25.38a364.46,364.46,0,0,1,.27-72.49,29.7,29.7,0,0,1,.35-3.1l6.49-37.69c.13-.76.29-1.5.49-2.25l2.59-9.95c.08-.29.15-.6.24-.89,10.63-35.84,29.14-66.13,55-90,25.47-23.48,58.22-40.84,97.33-51.58,24.48-6.69,49-10.81,72.71-14.78,14.74-2.45,31.34-5.21,47-8.63,57-12.5,100.73-30.4,137.53-56.34,16.65-11.73,96.75-75,38.49-168.87l-26.39-42.53a27.2,27.2,0,0,1,38.2-37l41.66,27.75c1.27.83,2.63,1.69,4,2.54l1.4.87a160.27,160.27,0,0,1,14.54,10c45.72,36.09,77.35,80.33,93.93,131.44,16.38,50.43,18.12,107.91,5.22,170.81-9.1,44.32-15,78.82-8.41,119.23,9.76,59.62-1,117-13.86,163.45C1316.81,653.16,1331.1,686.22,1329.23,724.24Z"/><path class="cls-2" d="M1249,650.06l-.84-.43-5.53,2.29c-3.24,10.21-18.24,10.56-17.8,1.22,0,0,.28-5.77.43-8.63a3.83,3.83,0,0,0-.2-1.46c-2.53-7.48-5-14.84-7.58-22.21-3.82-11.28-7.22-22.74-12.11-33.55-14-30.76-34.5-53.27-70.1-62.92a583.59,583.59,0,0,0-78.42-15.63,535.91,535.91,0,0,0-227.17,19.75c-33,10.08-55.33,31.34-66.65,63.82-.65,1.87-1.29,3.72-2,5.57-8,22.78-16.17,45.48-24.43,68.16a3.92,3.92,0,0,1-7.52-.54l0-.13C728,660.21,727,655,726,649.86a3.9,3.9,0,0,0-5.88-2.59c-.17.11-.35.21-.52.3a101.85,101.85,0,0,0-21.87,16.15c-16.09,15.87-23.6,36.31-21.66,62.33,2.43,32.3,20.37,52.54,48.48,66.16,5.41,2.64,11.28,9.16,12.46,14.84,11.32,54.05,41.52,95.26,84.54,128.17,46.36,35.46,98.79,59.37,152.78,80.1a26.26,26.26,0,0,0,18.83-.78c44.29-21.42,89.88-40.85,131.84-66.22,53.73-32.52,91.53-79.17,104.08-143.25,1-5.31,8.2-10.91,13.84-13.63,29.18-14.08,45.94-36.7,47.5-69.05S1277.76,664.59,1249,650.06ZM729.09,754.33a3.91,3.91,0,0,1-5.87,3.41c-18-11-23.38-35.21-16.9-55,3-9.17,8.57-17.38,16.64-22.82a3.93,3.93,0,0,1,6.13,3.25Zm506.86-.41V682.7a3.92,3.92,0,0,1,5.81-3.44c13.5,7.66,18.55,20.53,20.73,34.66,2.64,17.05-5.34,32.93-20.42,43.26A3.93,3.93,0,0,1,1236,753.92Z"/><path class="cls-1" d="M1273.66,340.34c-9.14,44.54-16.47,85.57-8.69,133.05,9.61,58.69-2.72,115.62-20.86,173.8a2,2,0,0,1-.13.36c-6.07,19.5-31.68,20.35-37.18,2.82-1.1-3.6-2.23-7.15-3.33-10.69-2.34-7.49-4.66-14.87-7-22.25-3.44-10.94-6.49-22.07-10.88-32.57-12.51-29.86-30.92-51.71-62.82-61.07a488.4,488.4,0,0,0-70.3-15.18,445.17,445.17,0,0,0-53.9-4.17q-75.06-1.28-149.72,23.34c-29.58,9.79-49.61,30.43-59.75,62-.58,1.82-1.16,3.61-1.75,5.41C778.85,621.51,770,647.75,761.2,674a13.09,13.09,0,0,1-2.45,4.24c-10.79,5-27,.15-29.65-12.88q-2.31-11.11-4.43-22.3c-2.84-15.31-5.27-30.69-6.8-46.14a325.24,325.24,0,0,1,.42-66.38v0l6.47-37.6,0,0c17.14-67.77,64.68-106,128.07-123.44,38.54-10.57,78.67-14.38,117.74-23,53.63-11.75,105.1-29.83,151.32-62.39,61.33-43.23,107-126.41,48.89-220.09,5.81,3.87,11.92,7.29,17.4,11.61C1273.78,143.19,1295.24,235.2,1273.66,340.34Z"/><path class="cls-1" d="M1064.49,821.38c1.31,50.16-30.75,81-80.76,82.41-45.15,1.28-89.15-37.94-81-82.41Z"/><path class="cls-3" d="M1044.62,837.24a45.76,45.76,0,0,1-.66,9.63c-4.09,22.93-26.22,36.73-58.62,37.44-33.15.74-65.45-21.66-59.45-47.07Z"/><path class="cls-1" d="M816.63,705.6l-11.55-1.13V683.69l9.74-1.29c4.69-18.14,18.23-23,35.37-22.87,30.3.23,60.6.09,90.91.07,10.78,0,20.56,2.43,29,9.77,2.07,1.8,5.78,2.29,8.77,2.37,10.54.29,20.73,1.08,30.1-7,4.65-4,13-4.87,19.77-5,32.17-.48,64.36-.35,96.54-.14,14.19.09,25.55,4.9,30.6,19.84.77,2.28,5.11,3.35,8.88,5.62v19.59c-10.06-2-11,4.09-11.55,11.91-.79,12.28-2.65,24.5-4.08,36.74-2.29,19.6-14.68,30.62-34.37,30.62-26.28,0-52.56-.34-78.84.17-10,.19-17.3-3.71-20.41-12.38-6.19-17.28-11.34-35-16.3-52.65-2.14-7.64-2.72-15.72-4.09-24.09H976.73c-2.14,11.77-3.6,24-6.69,35.7a373.46,373.46,0,0,1-13,39.49c-3.83,9.89-11.44,14.29-22.76,14-25.46-.67-50.95-.2-76.42-.26C836,783.94,824,772.55,822,750.43c-1.23-13.33-2.91-26.62-4.42-39.93C817.36,708.94,817,707.41,816.63,705.6Zm79.61-23c-12.33,0-24.66-.25-37,.07-13.11.33-20.34,8-19.22,20.32q1.82,20,4.35,39.92c1.75,13.75,8.06,19.19,21.86,19.24,18.77.08,37.54-.34,56.29.18,8.87.25,14.92-3.07,17.24-11.18,4.16-14.59,8.28-29.28,10.85-44.2,3-17.24-3.84-24.25-21.41-24.36C918.22,682.53,907.23,682.58,896.24,682.6Zm179.75,0v0c-12.33,0-24.66-.26-37,.07-11.38.32-19.17,6.42-18.75,15.67.85,19,4.26,37.68,12.61,55.09,3,6.2,7.64,8.94,14.73,8.83,19.29-.31,38.59-.06,57.88-.12,13.35,0,20.51-6.17,22-19.35q2.25-19.53,3.63-39.17c1-14-5.51-20.78-19.79-21C1099.57,682.44,1087.78,682.59,1076,682.59Z"/><path class="cls-4" d="M896.24,682.59c11,0,22-.06,33,0,17.57.11,24.39,7.12,21.41,24.36-2.57,14.92-6.69,29.61-10.85,44.2-2.32,8.11-8.37,11.43-17.24,11.18-18.75-.52-37.52-.1-56.29-.18-13.8,0-20.11-5.49-21.86-19.24Q841.85,723,840,703c-1.12-12.29,6.11-20,19.22-20.32C871.58,682.35,883.91,682.6,896.24,682.59Z"/><path class="cls-4" d="M1076,682.59c11.79,0,23.58-.15,35.37,0,14.28.23,20.78,7,19.79,21q-1.39,19.62-3.63,39.17c-1.53,13.18-8.69,19.3-22,19.35-19.29.06-38.59-.19-57.88.12-7.09.11-11.76-2.63-14.73-8.83-8.35-17.41-11.76-36.05-12.61-55.09-.42-9.25,7.37-15.35,18.75-15.67,12.32-.33,24.65-.07,37-.07Zm23.71,33.91,10-.5c4-20.75-8.55-23-32.69-20.07V705C1085.87,706.85,1097.71,701.41,1099.7,716.5Z"/><path class="cls-3" d="M1099.7,716.5c-2-15.09-13.83-9.65-22.71-11.47v-9.1c24.14-3,36.65-.68,32.69,20.07Z"/></g></g></g></svg>