<svg xmlns="http://www.w3.org/2000/svg" viewBox="0 0 2322.67 684.63"><defs><style>.cls-1{fill:#000e54;}.cls-2{fill:#e2f8fb;}.cls-3{fill:#dbebf7;}.cls-4{fill:#90cae4;}</style></defs><g id="Layer_2" data-name="Layer 2"><g id="Layer_1-2" data-name="Layer 1"><g id="Full_Coloured_Logo_in_black_-_Horizontal_Stack" data-name="Full Coloured Logo in black - Horizontal Stack"><path class="cls-1" d="M1222.42,409.89c1.36,65.29-31.88,105.42-83.72,107.27-46.8,1.67-92.41-49.38-84-107.27Z"/><path class="cls-1" d="M671.78,409.89h19.83V517.2H670.15L604,438.5v78.7H584.29V409.89h21.47l66,78.69Z"/><path class="cls-1" d="M852,429.56H773.13v24.15h63.49v19.67H773.13v24.15H852V517.2H753.3V409.89H852Z"/><path class="cls-1" d="M1019,459.67a20.9,20.9,0,0,1-20.87,20.72h-5.81L1019,512.13v5.07H997.58l-31-36.81H931.4V517.2H911.73V410h86.44A20.9,20.9,0,0,1,1019,430.75Zm-20.87,1a1,1,0,0,0,1.05-1V430.75a1,1,0,0,0-1.05-1H932.45a1,1,0,0,0-1.05,1v28.92a1,1,0,0,0,1.05,1Z"/><path class="cls-1" d="M1361.68,409.89l-49.63,67.22V517.2h-19.68V477.11c-15.64-21.32-34.13-45.91-49.63-67.22h23.4l36.07,45.61,35.92-45.61Z"/><path class="cls-1" d="M1575,409.89l-39,107.31h-15.5L1492.53,441c-9.09,25-18.92,51.27-27.87,76.16h-15.35l-39-107.31h20.87l25.93,70.79L1483,409.89h19.22l25.94,70.79,25.93-70.79Z"/><path class="cls-1" d="M1634,409.89h19.67V517.2H1634Z"/><path class="cls-1" d="M1813.26,409.89v19.67h-43.67V517.2h-19.82V429.56H1706V409.89Z"/><path class="cls-1" d="M1979,409.89V517.2h-19.67V473.38H1889V517.2h-19.68V409.89H1889v43.82h70.35V409.89Z"/><path class="cls-1" d="M2140.1,409.89h21.61V517.2h-19.82V438.5l-40.69,48.44-40.84-48.44v78.7h-19.67V409.89h21.46l39,46.5Z"/><path class="cls-1" d="M2322.67,429.56h-78.84v24.15h63.49v19.67h-63.49v24.15h78.84V517.2H2224V409.89h98.66Z"/><path class="cls-1" d="M448.35,470.08c-1.37,28.57-15.79,50.78-41.78,64.39-10.35,43-36.38,77.34-77.47,102.2-21.39,13-43.92,23.51-65.73,33.73l-.15.07c-7.44,3.48-14.69,6.88-21.74,10.3a40.85,40.85,0,0,1-17.62,3.86,39.86,39.86,0,0,1-14.31-2.57C177,669.54,139,653.16,104.32,626.66,71,601.21,50.45,571,41.51,534.37,16.15,520.74,2.29,500.16.26,473.11c-1.77-23.67,5.61-44.39,21.35-59.91a80.83,80.83,0,0,1,7.91-6.86c-.87-5.79-1.54-11.19-2.07-16.47a235.69,235.69,0,0,1,.18-47.05,17.09,17.09,0,0,1,.22-2l4.21-24.46c.09-.49.19-1,.32-1.46l1.69-6.46c0-.19.09-.39.15-.58,6.9-23.26,18.92-42.92,35.73-58.41,16.53-15.25,37.79-26.51,63.17-33.48,15.89-4.35,31.79-7,47.19-9.6,9.57-1.59,20.34-3.38,30.48-5.6,37-8.11,65.38-19.73,89.27-36.56,10.8-7.62,62.79-48.67,25-109.61L307.91,27A17.65,17.65,0,0,1,332.7,3l27,18,2.58,1.65.91.56a103,103,0,0,1,9.44,6.51c29.67,23.43,50.2,52.14,61,85.31,10.63,32.74,11.76,70.05,3.4,110.87-5.91,28.77-9.76,51.16-5.47,77.39,6.34,38.7-.67,76-9,106.09C440.29,424,449.56,445.41,448.35,470.08Z"/><path class="cls-2" d="M396.27,421.94l-.55-.29-3.59,1.49c-2.1,6.63-11.83,6.86-11.55.8,0,0,.18-3.75.28-5.6a2.76,2.76,0,0,0-.13-.95c-1.65-4.86-3.28-9.64-4.92-14.42-2.48-7.32-4.69-14.76-7.86-21.78-9.07-20-22.39-34.57-45.5-40.84a377.93,377.93,0,0,0-50.91-10.14A347.84,347.84,0,0,0,124.1,343c-21.43,6.54-35.92,20.34-43.26,41.42-.43,1.22-.84,2.42-1.28,3.62-5.16,14.78-10.49,29.51-15.85,44.24a2.54,2.54,0,0,1-4.88-.35l0-.09q-1-5-2-10.06A2.52,2.52,0,0,0,53,420.13l-.34.19a66.52,66.52,0,0,0-14.2,10.48c-10.44,10.3-15.31,23.57-14,40.46,1.58,21,13.22,34.1,31.47,43,3.5,1.7,7.32,5.94,8.08,9.63,7.35,35.08,27,61.82,54.87,83.19,30.09,23,64.13,38.53,99.17,52a17,17,0,0,0,12.22-.5c28.75-13.91,58.34-26.51,85.57-43,34.88-21.11,59.42-51.39,67.56-93,.68-3.45,5.32-7.08,9-8.85,18.95-9.14,29.82-23.82,30.84-44.82S414.94,431.37,396.27,421.94ZM58.81,489.62A2.54,2.54,0,0,1,55,491.83C43.32,484.72,39.83,469,44,456.16a28.25,28.25,0,0,1,10.79-14.82,2.55,2.55,0,0,1,4,2.11Zm329-.27V443.12a2.53,2.53,0,0,1,3.76-2.23c8.77,5,12,13.32,13.46,22.5,1.71,11.06-3.47,21.37-13.26,28.08A2.54,2.54,0,0,1,387.81,489.35Z"/><path class="cls-1" d="M412.28,220.9c-5.94,28.91-10.69,55.54-5.64,86.36,6.24,38.1-1.77,75.05-13.54,112.81a2.25,2.25,0,0,1-.08.24c-3.95,12.66-20.57,13.21-24.13,1.83-.72-2.34-1.45-4.64-2.17-6.94-1.52-4.86-3-9.65-4.53-14.44-2.24-7.1-4.22-14.33-7.07-21.15C347,360.24,335.05,346.05,314.35,340a317.64,317.64,0,0,0-45.63-9.86,289.1,289.1,0,0,0-132.17,12.45c-19.2,6.35-32.2,19.75-38.78,40.21-.37,1.18-.75,2.34-1.14,3.51-5.52,17.12-11.24,34.15-17,51.18a8.68,8.68,0,0,1-1.59,2.76c-7,3.25-17.51.09-19.25-8.36-1-4.81-2-9.64-2.87-14.48-1.85-9.93-3.43-19.92-4.42-29.95a211.07,211.07,0,0,1,.27-43.08v0L56,319.93h0c11.12-44,42-68.83,83.12-80.12,25-6.87,51.07-9.34,76.43-14.91,34.81-7.62,68.21-19.36,98.21-40.49,39.81-28.07,69.47-82.05,31.74-142.86,3.76,2.51,7.73,4.74,11.29,7.54C412.36,92.94,426.29,152.66,412.28,220.9Z"/><path class="cls-1" d="M276.51,533.14c.85,32.55-20,52.57-52.42,53.49-29.3.83-57.86-24.63-52.57-53.49Z"/><path class="cls-3" d="M263.62,543.43a30.25,30.25,0,0,1-.43,6.25c-2.66,14.88-17,23.84-38.05,24.3-21.52.48-42.48-14.06-38.59-30.55Z"/><path class="cls-1" d="M115.63,458l-7.5-.74V443.76l6.33-.83c3-11.78,11.83-14.93,23-14.85,19.67.15,39.34.06,59,.05,7,0,13.35,1.58,18.81,6.34,1.35,1.17,3.76,1.48,5.7,1.54,6.84.18,13.45.7,19.53-4.51,3-2.59,8.47-3.16,12.83-3.23,20.89-.31,41.78-.23,62.67-.09,9.21.06,16.58,3.18,19.86,12.88.5,1.48,3.32,2.17,5.76,3.65v12.71c-6.53-1.29-7.17,2.65-7.5,7.73-.51,8-1.71,15.9-2.64,23.85-1.49,12.72-9.53,19.87-22.31,19.87-17.06,0-34.12-.22-51.17.11-6.5.13-11.24-2.4-13.25-8-4-11.22-7.36-22.69-10.58-34.17-1.39-5-1.77-10.21-2.66-15.64H219.55c-1.39,7.64-2.34,15.54-4.34,23.17a241.42,241.42,0,0,1-8.42,25.63c-2.49,6.42-7.42,9.28-14.77,9.09-16.53-.44-33.07-.13-49.61-.17-14.2,0-22-7.42-23.32-21.78-.8-8.65-1.89-17.28-2.87-25.91C116.1,460.16,115.85,459.16,115.63,458Zm51.68-14.93c-8,0-16-.16-24,0-8.51.22-13.21,5.21-12.48,13.19q1.19,13,2.82,25.91c1.14,8.93,5.24,12.46,14.2,12.49,12.17.05,24.36-.22,36.53.12,5.75.16,9.69-2,11.19-7.26a277.14,277.14,0,0,0,7-28.69c1.93-11.19-2.49-15.74-13.89-15.81C181.58,443,174.44,443.05,167.31,443.06Zm116.67,0v0c-8,0-16-.17-24,.05-7.38.2-12.44,4.17-12.17,10.17.55,12.36,2.77,24.45,8.19,35.76,1.93,4,5,5.79,9.56,5.72,12.52-.19,25.05,0,37.57-.08,8.66,0,13.31-4,14.3-12.55s1.76-16.94,2.36-25.43c.64-9.06-3.57-13.49-12.84-13.63C299.29,443,291.63,443.05,284,443.05Z"/><path class="cls-4" d="M167.31,443.05c7.13,0,14.27,0,21.4,0,11.4.07,15.82,4.62,13.89,15.81a277.14,277.14,0,0,1-7,28.69c-1.5,5.27-5.44,7.42-11.19,7.26-12.17-.34-24.36-.07-36.53-.12-9,0-13.06-3.56-14.2-12.49q-1.63-12.93-2.82-25.91c-.73-8,4-13,12.48-13.19C151.3,442.9,159.31,443.06,167.31,443.05Z"/><path class="cls-4" d="M284,443.05c7.65,0,15.31-.09,23,0,9.27.14,13.48,4.57,12.84,13.63q-.9,12.74-2.36,25.43c-1,8.55-5.64,12.53-14.3,12.55-12.52.05-25.05-.11-37.57.08-4.6.07-7.63-1.7-9.56-5.72-5.42-11.31-7.64-23.4-8.19-35.76-.27-6,4.79-10,12.17-10.17,8-.22,16-.05,24-.05Zm15.39,22,6.47-.33c2.58-13.46-5.55-15-21.21-13v5.9C290.39,458.8,298.08,455.27,299.37,465.06Z"/><path class="cls-3" d="M299.37,465.06c-1.29-9.79-9-6.26-14.74-7.45v-5.9c15.66-1.94,23.79-.44,21.21,13Z"/></g></g></g></svg>