<svg xmlns="http://www.w3.org/2000/svg" viewBox="0 0 830.06 1267.2"><defs><style>.cls-1{fill:#fff;}.cls-2{fill:#1d1d1b;}</style></defs><g id="Layer_2" data-name="Layer 2"><g id="Layer_1-2" data-name="Layer 1"><g id="Logo_in_white" data-name="Logo in white"><path class="cls-1" d="M829.86,870.09c-2.53,52.88-29.22,94-77.33,119.17-19.15,79.55-67.33,143.15-143.39,189.17-39.59,24-81.3,43.51-121.65,62.43l-.29.13c-13.77,6.45-27.19,12.74-40.24,19.06a75.53,75.53,0,0,1-32.62,7.15,73.87,73.87,0,0,1-26.47-4.75c-60.29-23.18-130.67-53.49-194.78-102.54-61.6-47.11-99.71-103.09-116.27-170.83C29.89,963.85,4.24,925.76.47,875.69-2.79,831.87,10.87,793.52,40,764.8a151,151,0,0,1,14.64-12.7c-1.61-10.72-2.85-20.7-3.83-30.48a437.92,437.92,0,0,1,.32-87.09,36.07,36.07,0,0,1,.42-3.73l7.8-45.28a27.63,27.63,0,0,1,.59-2.7l3.11-12c.09-.35.18-.72.29-1.07,12.77-43.06,35-79.44,66.13-108.12,30.59-28.22,69.94-49.07,116.92-62,29.41-8,58.85-13,87.35-17.76,17.72-2.94,37.65-6.25,56.42-10.37,68.5-15,121-36.52,165.22-67.67,20-14.1,116.23-90.08,46.24-202.89l-31.7-51.09A32.68,32.68,0,0,1,615.81,5.49l50,33.34c1.53,1,3.16,2,4.78,3.05l1.67,1a193.62,193.62,0,0,1,17.48,12c54.93,43.36,92.93,96.51,112.85,157.91,19.67,60.6,21.76,129.65,6.27,205.21-10.94,53.26-18.06,94.7-10.11,143.25,11.72,71.62-1.24,140.58-16.65,196.36C814.94,784.7,832.11,824.42,829.86,870.09Z"/><path class="cls-2" d="M733.47,781c-.35-.17-.69-.34-1-.52l-6.65,2.75c-3.89,12.28-21.9,12.7-21.38,1.48,0,0,.34-6.94.52-10.37a4.73,4.73,0,0,0-.24-1.75c-3-9-6.06-17.84-9.1-26.69-4.6-13.55-8.68-27.32-14.56-40.31-16.78-37-41.44-64-84.21-75.59a700.73,700.73,0,0,0-94.22-18.78A650.74,650.74,0,0,0,430.38,606c-67.09-1-133.94,8.47-200.68,28.89C190,647,163.22,672.57,149.62,711.6c-.78,2.24-1.55,4.46-2.35,6.68-9.56,27.37-19.43,54.64-29.35,81.89a4.71,4.71,0,0,1-9-.64l0-.17q-1.91-9.3-3.73-18.63a4.68,4.68,0,0,0-7.06-3.11l-.62.37a122.8,122.8,0,0,0-26.28,19.39c-19.33,19.07-28.35,43.62-26,74.89,2.92,38.81,24.47,63.12,58.24,79.49,6.5,3.16,13.56,11,15,17.82,13.6,64.93,49.88,114.44,101.56,154,55.7,42.59,118.69,71.31,183.56,96.22,6.56,2.55,16.27,2.11,22.61-.94,53.21-25.73,108-49.07,158.39-79.55,64.56-39.07,110-95.11,125-172.09,1.26-6.39,9.85-13.12,16.62-16.39,35.06-16.91,55.2-44.08,57.07-83S768,798.43,733.47,781ZM108.85,906.25a4.69,4.69,0,0,1-7,4.08c-21.62-13.15-28.09-42.3-20.29-66,3.61-11,10.29-20.88,20-27.41a4.71,4.71,0,0,1,7.36,3.9Zm608.95-.5V820.19a4.71,4.71,0,0,1,7-4.14c16.21,9.21,22.28,24.67,24.9,41.64,3.17,20.49-6.42,39.57-24.54,52A4.71,4.71,0,0,1,717.8,905.75Z"/><path class="cls-1" d="M763.09,408.87c-11,53.52-19.78,102.81-10.43,159.85,11.55,70.51-3.27,138.91-25.06,208.81,0,.13-.09.28-.15.43-7.3,23.43-38.07,24.45-44.67,3.38-1.33-4.31-2.68-8.58-4-12.83-2.81-9-5.6-17.87-8.39-26.74-4.14-13.14-7.8-26.52-13.07-39.13-15-35.87-37.15-62.12-75.48-73.37A585.76,585.76,0,0,0,497.37,611a535.26,535.26,0,0,0-64.75-5q-90.18-1.53-179.87,28.05c-35.54,11.76-59.6,36.56-71.78,74.43-.7,2.18-1.39,4.34-2.11,6.49-10.22,31.68-20.81,63.21-31.42,94.74a16,16,0,0,1-2.94,5.1c-13,6-32.4.18-35.63-15.47q-2.78-13.36-5.32-26.8c-3.42-18.39-6.34-36.87-8.17-55.43a390.92,390.92,0,0,1,.5-79.75v0l7.78-45.17,0,0c20.59-81.42,77.7-127.4,153.85-148.29,46.3-12.71,94.52-17.28,141.46-27.59,64.43-14.12,126.26-35.84,181.78-74.95,73.69-51.95,128.58-151.88,58.75-264.42,7,4.64,14.31,8.76,20.89,14C763.25,172,789,282.56,763.09,408.87Z"/><path class="cls-1" d="M511.81,986.8c1.57,60.26-36.95,97.3-97,99-54.25,1.54-107.11-45.58-97.3-99Z"/><path class="cls-2" d="M487.93,1005.85a54.53,54.53,0,0,1-.79,11.57c-4.91,27.54-31.5,44.12-70.43,45-39.82.88-78.62-26-71.42-56.55Z"/><path class="cls-1" d="M214,847.7l-13.88-1.36v-25l11.71-1.54c5.63-21.8,21.9-27.64,42.48-27.48,36.41.27,72.82.11,109.22.08,12.95,0,24.7,2.92,34.82,11.74,2.49,2.16,6.95,2.75,10.54,2.85,12.66.34,24.9,1.3,36.16-8.35,5.59-4.78,15.66-5.85,23.75-6,38.65-.57,77.32-.43,116-.17,17.05.11,30.7,5.89,36.77,23.84.92,2.73,6.14,4,10.66,6.75v23.53c-12.08-2.38-13.27,4.91-13.88,14.32-1,14.75-3.18,29.42-4.89,44.13-2.75,23.55-17.64,36.79-41.29,36.78-31.57,0-63.16-.4-94.72.21-12,.23-20.79-4.45-24.52-14.87-7.44-20.76-13.63-42-19.58-63.25-2.57-9.19-3.28-18.89-4.93-28.94H406.38c-2.58,14.13-4.34,28.76-8.05,42.88a445,445,0,0,1-15.58,47.44c-4.6,11.88-13.74,17.18-27.34,16.82-30.59-.8-61.21-.24-91.82-.31-26.29-.05-40.71-13.73-43.17-40.31-1.48-16-3.49-32-5.31-48C214.9,851.71,214.43,849.87,214,847.7Zm95.65-27.63c-14.82,0-29.64-.3-44.44.08-15.76.4-24.45,9.64-23.1,24.41q2.19,24,5.22,48c2.11,16.53,9.69,23.06,26.27,23.12,22.55.09,45.1-.41,67.62.21,10.66.3,17.93-3.69,20.71-13.42,5-17.53,10-35.19,13-53.12,3.58-20.7-4.61-29.13-25.71-29.25C336.08,820,322.88,820,309.68,820.07Zm215.94,0v0c-14.81,0-29.63-.32-44.43.09-13.66.38-23,7.71-22.53,18.82,1,22.88,5.12,45.27,15.15,66.19,3.58,7.45,9.19,10.73,17.71,10.6,23.17-.37,46.35-.07,69.53-.15,16,0,24.64-7.4,26.47-23.23q2.72-23.48,4.37-47.07c1.19-16.78-6.62-25-23.77-25.24C554,819.88,539.79,820.06,525.62,820.06Z"/><path class="cls-2" d="M309.68,820.06c13.2,0,26.4-.08,39.61,0,21.1.12,29.29,8.55,25.71,29.25-3.09,17.93-8,35.59-13,53.12-2.78,9.73-10,13.72-20.71,13.42-22.52-.62-45.07-.12-67.62-.21-16.58-.06-24.16-6.59-26.27-23.12q-3-23.92-5.22-48c-1.35-14.77,7.34-24,23.1-24.41C280,819.77,294.86,820.07,309.68,820.06Z"/><path class="cls-2" d="M525.62,820.06c14.17,0,28.33-.18,42.5,0,17.15.28,25,8.46,23.77,25.24q-1.68,23.58-4.37,47.07c-1.83,15.83-10.43,23.18-26.47,23.23-23.18.08-46.36-.22-69.53.15-8.52.13-14.13-3.15-17.71-10.6-10-20.92-14.12-43.31-15.15-66.19-.49-11.11,8.87-18.44,22.53-18.82,14.8-.41,29.62-.09,44.43-.09Zm28.49,40.73,12-.6c4.77-24.92-10.27-27.69-39.26-24.11V847C537.49,849.2,551.72,842.67,554.11,860.79Z"/><path class="cls-1" d="M554.11,860.79c-2.39-18.12-16.62-11.59-27.28-13.78V836.08c29-3.58,44-.81,39.26,24.11Z"/></g></g></g></svg>